<?xml version="1.0" encoding="UTF-8"?> <svg xmlns="http://www.w3.org/2000/svg" width="114" height="22" viewBox="0 0 114 22" fill="none"><path d="M71.5004 17.1653C71.6284 16.5528 71.7564 15.9479 71.8784 15.3355H73.553C73.4325 15.9479 73.3105 16.5453 73.19 17.1653H71.5004ZM48.57 8.11879L47.2373 14.5299C46.8668 16.316 45.9272 17.1668 44.0674 17.1668H36.068L38.5618 5.23755H46.3051C47.543 5.17872 48.5941 6.14567 48.6513 7.39773C48.6619 7.6406 48.6348 7.88347 48.57 8.11879ZM45.635 6.75662H39.9367L38.0844 15.61H43.8836C44.995 15.61 45.4016 15.1846 45.6365 14.0834L46.8186 8.37071C47.0189 7.39773 46.5626 6.77924 45.6365 6.77924V6.75662H45.635ZM49.3742 17.1442H58.7198L59.0406 15.61H51.3755L52.1526 11.8644H58.2153L58.5572 10.3303H52.4884L53.2007 6.72795H60.9079L61.2136 5.23755H51.8679L49.3742 17.1442ZM65.1741 17.1442H67.311L74.9474 5.23755H72.9747L66.5204 15.5376H66.4346L64.2977 5.23001H62.5252L65.1741 17.1442ZM87.969 8.11879L87.4419 10.5897C87.0715 12.3833 86.1318 13.2326 84.2795 13.2326H78.2966L77.4909 17.1517H75.8028L78.3101 5.23755H85.7041C86.945 5.17571 88.0021 6.14416 88.0624 7.39924C88.0744 7.64211 88.0473 7.88498 87.9841 8.11879H87.969ZM85.049 6.75662H79.6639L78.6459 11.7196H84.1244C85.2358 11.7196 85.6424 11.2942 85.8773 10.1854L86.2477 8.39937C86.4691 7.39773 85.9978 6.7717 85.0656 6.7717L85.049 6.75662ZM100.941 8.11879L100.557 9.99235C100.186 11.7784 99.2241 12.6292 97.4728 12.6292L99.9439 17.1457H97.8703L95.4548 12.6503H91.4085L90.4688 17.1668H88.7807L91.2669 5.23755H98.6684C99.9063 5.1742 100.96 6.13813 101.022 7.39019C101.034 7.63456 101.007 7.88196 100.941 8.11879ZM98.0284 6.75662H92.6072L91.6961 11.0785H97.1746C98.2859 11.0785 98.6925 10.6531 98.9275 9.54433L99.1774 8.34809C99.4274 7.39773 98.9561 6.77773 98.0299 6.77773V6.75662H98.0284ZM113.913 8.03884L112.551 14.6008C112.188 16.3371 111.276 17.1653 109.473 17.1653H104.166C102.965 17.2332 101.935 16.3039 101.867 15.0881C101.853 14.8392 101.882 14.5888 101.95 14.3489L103.289 7.80804C103.644 6.07176 104.564 5.24359 106.365 5.24359H111.672C112.874 5.16364 113.911 6.08231 113.991 7.29666C114.008 7.55461 113.98 7.81257 113.908 8.05996V8.03884H113.913ZM111.064 6.71287H106.576C105.493 6.71287 105.102 7.12318 104.873 8.20478L103.647 14.0819C103.433 15.076 103.889 15.6523 104.787 15.6523H109.275C110.357 15.6523 110.749 15.2419 110.984 14.1619L112.21 8.28322C112.423 7.31024 111.967 6.73399 111.062 6.73399V6.71287H111.064Z" fill="black"></path><path d="M28.1557 5.61163C27.6406 5.03236 26.8862 4.73066 26.1182 4.79704H17.1927L13.58 22L17.0059 19.9756L17.5827 17.209H26.6859C26.6859 17.209 28.2038 10.0708 28.6662 7.67828C28.8062 6.94665 28.6195 6.19089 28.1557 5.61163ZM25.4405 8.78854L24.3292 14.1045H18.2604L19.5494 7.90304H24.7132C24.939 7.89249 25.1559 7.99205 25.2975 8.17005C25.439 8.34202 25.4917 8.5698 25.4405 8.78854ZM0.55845 16.3884C1.07648 16.9691 1.83245 17.2708 2.60347 17.203H11.5214L15.1341 0L11.7067 2.02441L11.1299 4.791H2.02671C2.02671 4.791 0.508755 11.9292 0.0464427 14.3217C-0.0921006 15.0518 0.0946316 15.8091 0.55845 16.3884ZM3.27209 13.2115L4.38345 7.8955H10.4522L9.16319 14.0985H3.99794C3.77205 14.1075 3.5552 14.0095 3.41365 13.8315C3.2751 13.658 3.2224 13.4287 3.27209 13.2115Z" fill="#5FBD3E"></path></svg> 